<svg xmlns="http://www.w3.org/2000/svg" xmlns:xlink="http://www.w3.org/1999/xlink" width="90" zoomAndPan="magnify" viewBox="0 0 67.5 67.499996" height="90" preserveAspectRatio="xMidYMid meet" version="1.0"><defs><clipPath id="738303d2f7"><path d="M 1 17 L 67 17 L 67 60.75 L 1 60.75 Z M 1 17 " clip-rule="nonzero"/></clipPath><clipPath id="a4d6639193"><path d="M 25 26 L 67 26 L 67 60.75 L 25 60.75 Z M 25 26 " clip-rule="nonzero"/></clipPath></defs><g clip-path="url(#738303d2f7)"><path fill="#efc9b6" d="M 64.230469 26.101562 C 64.230469 26.101562 59.175781 19.109375 52.289062 18.3125 C 44.410156 17.402344 30.578125 15.277344 21.332031 21.367188 C 21.332031 21.367188 11.925781 14.734375 11.460938 18.3125 C 11.070312 21.308594 12.054688 26.453125 12.054688 26.453125 C 12.054688 26.453125 7.835938 36.582031 6.835938 37.164062 C 3.847656 38.902344 2.300781 40.199219 1.527344 40.742188 C 0.757812 41.289062 2.214844 46.445312 2.214844 46.445312 C 2.214844 46.445312 7.609375 48.375 9.148438 49.148438 C 10.691406 49.921875 22.246094 54.199219 24.171875 54.953125 C 24.171875 54.953125 24.941406 59.707031 27.253906 60.21875 C 29.5625 60.730469 33.800781 59.996094 33.800781 59.996094 L 36.113281 54.957031 C 36.113281 54.957031 47.050781 55.203125 50.132812 54.042969 C 50.132812 54.042969 53.058594 59.402344 54.214844 59.296875 C 55.371094 59.1875 60.378906 57.773438 60.378906 57.773438 C 60.378906 57.773438 63.898438 51.960938 65.210938 47.304688 C 67.101562 40.613281 68.265625 30.558594 64.230469 26.101562 Z M 64.230469 26.101562 " fill-opacity="1" fill-rule="nonzero"/></g><path fill="#f08db5" d="M 12.824219 19.246094 C 12.824219 19.246094 12.441406 26.324219 13.464844 26.453125 C 14.492188 26.582031 18.730469 24.652344 18.859375 24.265625 C 18.988281 23.878906 15.648438 20.535156 12.824219 19.246094 Z M 12.824219 19.246094 " fill-opacity="1" fill-rule="nonzero"/><path fill="#232844" d="M 12.753906 31.730469 C 12.753906 31.730469 11.539062 32.890625 12.054688 33.789062 C 12.566406 34.691406 14.238281 35.078125 14.75 33.789062 C 15.265625 32.503906 14.867188 31.089844 12.753906 31.730469 Z M 12.753906 31.730469 " fill-opacity="1" fill-rule="nonzero"/><path fill="#232844" d="M 8.039062 48.441406 C 7.691406 48.441406 7.46875 48.429688 7.417969 48.425781 C 7.207031 48.414062 7.042969 48.234375 7.054688 48.019531 C 7.066406 47.808594 7.246094 47.648438 7.460938 47.65625 C 7.535156 47.660156 14.886719 48.011719 16.3125 43.960938 C 16.382812 43.757812 16.605469 43.652344 16.804688 43.722656 C 17.003906 43.792969 17.109375 44.015625 17.039062 44.214844 C 15.671875 48.105469 9.960938 48.441406 8.039062 48.441406 Z M 8.039062 48.441406 " fill-opacity="1" fill-rule="nonzero"/><g clip-path="url(#a4d6639193)"><path fill="#e2ad96" d="M 58.023438 56.828125 C 58.023438 56.828125 55.453125 58.375 54.042969 56.828125 C 52.628906 55.285156 51.730469 50.523438 50.574219 50.265625 C 49.417969 50.007812 35.550781 52.96875 35.550781 52.96875 C 35.550781 52.96875 31.699219 59.019531 27.847656 59.148438 C 27.121094 59.171875 26.480469 59.234375 25.917969 59.328125 C 26.289062 59.773438 26.730469 60.101562 27.253906 60.21875 C 29.5625 60.730469 33.800781 59.996094 33.800781 59.996094 L 36.113281 54.957031 C 36.113281 54.957031 47.050781 55.203125 50.132812 54.042969 C 50.132812 54.042969 53.058594 59.402344 54.214844 59.296875 C 55.371094 59.1875 60.378906 57.773438 60.378906 57.773438 C 60.378906 57.773438 63.898438 51.960938 65.210938 47.304688 C 66.984375 41.027344 68.117188 31.789062 64.917969 26.992188 C 65.84375 36.382812 65.824219 50.945312 58.023438 56.828125 Z M 58.023438 56.828125 " fill-opacity="1" fill-rule="nonzero"/></g><path fill="#232844" d="M 47.136719 19.914062 C 47.136719 19.914062 40.472656 17.789062 33.453125 20.191406 L 34.125 21.390625 L 46.429688 21.390625 Z M 47.136719 19.914062 " fill-opacity="1" fill-rule="nonzero"/><path fill="#f4db73" d="M 40.832031 7.28125 C 40.832031 7.28125 34.082031 6.777344 33.703125 13.292969 C 33.417969 18.1875 35.847656 20.691406 40.832031 20.691406 C 40.832031 20.691406 46.890625 20.691406 46.449219 13.292969 C 46.449219 13.292969 46.472656 7.597656 40.832031 7.28125 Z M 40.832031 7.28125 " fill-opacity="1" fill-rule="nonzero"/><path fill="#efb054" d="M 40.683594 8.605469 C 40.683594 8.605469 35.265625 8.199219 34.960938 13.425781 C 34.730469 17.359375 36.683594 19.367188 40.683594 19.367188 C 40.683594 19.367188 45.546875 19.367188 45.191406 13.425781 C 45.191406 13.429688 45.210938 8.859375 40.683594 8.605469 Z M 40.683594 8.605469 " fill-opacity="1" fill-rule="nonzero"/><path fill="#e09b3e" d="M 45.191406 13.429688 C 45.191406 13.429688 45.203125 11.03125 43.488281 9.613281 C 44.488281 10.992188 44.484375 12.667969 44.484375 12.667969 C 44.835938 18.609375 39.976562 18.609375 39.976562 18.609375 C 38.195312 18.609375 36.820312 18.210938 35.863281 17.421875 C 36.789062 18.714844 38.402344 19.367188 40.683594 19.367188 C 40.683594 19.367188 45.546875 19.367188 45.191406 13.429688 Z M 45.191406 13.429688 " fill-opacity="1" fill-rule="nonzero"/><path fill="#f4db73" d="M 42.070312 11.175781 C 40.410156 10.410156 37.394531 10.769531 38.058594 13.328125 C 38.332031 14.382812 39.21875 14.316406 40.121094 14.253906 C 41.824219 14.132812 41.972656 16.238281 40.378906 16.625 C 39.695312 16.792969 38.910156 16.65625 38.214844 16.644531 C 38.335938 16.765625 38.457031 16.886719 38.578125 17.007812 C 38.578125 16.976562 38.578125 16.945312 38.578125 16.910156 C 38.578125 16.441406 37.851562 16.441406 37.851562 16.910156 C 37.851562 16.945312 37.851562 16.976562 37.851562 17.007812 C 37.851562 17.207031 38.015625 17.367188 38.214844 17.371094 C 39.300781 17.390625 40.410156 17.550781 41.402344 17.007812 C 42.222656 16.558594 42.429688 15.4375 42.179688 14.621094 C 41.914062 13.761719 40.617188 13.492188 39.855469 13.546875 C 38.558594 13.636719 38.34375 11.992188 39.59375 11.546875 C 40.234375 11.320312 41.101562 11.523438 41.703125 11.800781 C 42.125 11.996094 42.492188 11.371094 42.070312 11.175781 Z M 42.070312 11.175781 " fill-opacity="1" fill-rule="nonzero"/><path fill="#f4db73" d="M 39.714844 10.253906 C 39.714844 10.449219 39.714844 10.640625 39.714844 10.835938 C 39.714844 11.304688 40.4375 11.304688 40.4375 10.835938 C 40.4375 10.640625 40.4375 10.449219 40.4375 10.253906 C 40.4375 9.785156 39.714844 9.785156 39.714844 10.253906 Z M 39.714844 10.253906 " fill-opacity="1" fill-rule="nonzero"/><path fill="#f4db73" d="M 39.714844 17.128906 C 39.714844 17.324219 39.714844 17.515625 39.714844 17.710938 C 39.714844 18.179688 40.4375 18.179688 40.4375 17.710938 C 40.4375 17.515625 40.4375 17.324219 40.4375 17.128906 C 40.4375 16.660156 39.714844 16.660156 39.714844 17.128906 Z M 39.714844 17.128906 " fill-opacity="1" fill-rule="nonzero"/></svg>