<svg xmlns="http://www.w3.org/2000/svg" xmlns:xlink="http://www.w3.org/1999/xlink" width="50" zoomAndPan="magnify" viewBox="0 0 37.5 37.499999" height="50" preserveAspectRatio="xMidYMid meet" version="1.0"><defs><clipPath id="ddbbb49834"><path d="M 18 28 L 20 28 L 20 37.007812 L 18 37.007812 Z M 18 28 " clip-rule="nonzero"/></clipPath><clipPath id="06eed796ba"><path d="M 6 32 L 10 32 L 10 37.007812 L 6 37.007812 Z M 6 32 " clip-rule="nonzero"/></clipPath><clipPath id="70b24a23a8"><path d="M 28 32 L 32 32 L 32 37.007812 L 28 37.007812 Z M 28 32 " clip-rule="nonzero"/></clipPath><clipPath id="e2a9efc39d"><path d="M 28 24 L 37.007812 24 L 37.007812 30 L 28 30 Z M 28 24 " clip-rule="nonzero"/></clipPath><clipPath id="a130c3d6cd"><path d="M 33 16 L 37.007812 16 L 37.007812 17 L 33 17 Z M 33 16 " clip-rule="nonzero"/></clipPath><clipPath id="aa207bd66f"><path d="M 27 5 L 37.007812 5 L 37.007812 12 L 27 12 Z M 27 5 " clip-rule="nonzero"/></clipPath></defs><path fill="#ffc05a" d="M 31.640625 16.703125 L 24.941406 22.339844 L 27.410156 31.253906 L 18.753906 25.460938 L 10.097656 31.253906 L 12.566406 22.339844 L 5.867188 16.703125 L 14.710938 14.726562 L 18.753906 6.242188 L 22.796875 14.726562 Z M 31.640625 16.703125 " fill-opacity="1" fill-rule="nonzero"/><path fill="#f9b132" d="M 31.640625 16.703125 L 24.941406 22.339844 L 27.410156 31.253906 L 18.753906 25.460938 L 10.097656 31.253906 L 12.566406 22.339844 C 12.566406 22.339844 23.722656 19.976562 18.753906 6.242188 L 22.796875 14.726562 Z M 31.640625 16.703125 " fill-opacity="1" fill-rule="nonzero"/><path fill="#f69552" d="M 18.753906 4.660156 C 18.589844 4.660156 18.457031 4.527344 18.457031 4.363281 L 18.457031 0.355469 C 18.457031 0.191406 18.589844 0.0585938 18.753906 0.0585938 C 18.917969 0.0585938 19.050781 0.191406 19.050781 0.355469 L 19.050781 4.363281 C 19.050781 4.527344 18.917969 4.660156 18.753906 4.660156 Z M 18.753906 4.660156 " fill-opacity="1" fill-rule="nonzero"/><g clip-path="url(#ddbbb49834)"><path fill="#e15c63" d="M 18.753906 37.476562 C 18.589844 37.476562 18.457031 37.34375 18.457031 37.179688 L 18.457031 29.066406 C 18.457031 28.902344 18.589844 28.769531 18.753906 28.769531 C 18.917969 28.769531 19.050781 28.902344 19.050781 29.066406 L 19.050781 37.179688 C 19.050781 37.34375 18.917969 37.476562 18.753906 37.476562 Z M 18.753906 37.476562 " fill-opacity="1" fill-rule="nonzero"/></g><g clip-path="url(#06eed796ba)"><path fill="#e0ac69" d="M 6.578125 37.476562 C 6.527344 37.476562 6.472656 37.464844 6.425781 37.433594 C 6.285156 37.351562 6.238281 37.167969 6.324219 37.027344 L 8.847656 32.78125 C 8.929688 32.636719 9.113281 32.59375 9.253906 32.675781 C 9.394531 32.757812 9.441406 32.941406 9.355469 33.082031 L 6.832031 37.332031 C 6.777344 37.425781 6.679688 37.476562 6.578125 37.476562 Z M 6.578125 37.476562 " fill-opacity="1" fill-rule="nonzero"/></g><path fill="#f69552" d="M 0.34375 29.457031 C 0.238281 29.457031 0.136719 29.402344 0.0820312 29.304688 C 0.00390625 29.164062 0.0546875 28.984375 0.195312 28.902344 L 8.214844 24.429688 C 8.359375 24.347656 8.539062 24.398438 8.617188 24.542969 C 8.699219 24.6875 8.648438 24.867188 8.503906 24.949219 L 0.484375 29.421875 C 0.441406 29.445312 0.390625 29.457031 0.34375 29.457031 Z M 0.34375 29.457031 " fill-opacity="1" fill-rule="nonzero"/><path fill="#e15c63" d="M 3.414062 17 L 0.4375 17 C 0.273438 17 0.140625 16.867188 0.140625 16.703125 C 0.140625 16.539062 0.273438 16.40625 0.4375 16.40625 L 3.414062 16.40625 C 3.578125 16.40625 3.710938 16.539062 3.710938 16.703125 C 3.710938 16.867188 3.578125 17 3.414062 17 Z M 3.414062 17 " fill-opacity="1" fill-rule="nonzero"/><path fill="#f69552" d="M 9.941406 11.945312 C 9.886719 11.945312 9.832031 11.929688 9.78125 11.898438 L 0.179688 5.707031 C 0.0429688 5.617188 0.00390625 5.433594 0.09375 5.296875 C 0.179688 5.160156 0.363281 5.121094 0.503906 5.207031 L 10.101562 11.398438 C 10.242188 11.488281 10.28125 11.671875 10.191406 11.808594 C 10.132812 11.898438 10.039062 11.945312 9.941406 11.945312 Z M 9.941406 11.945312 " fill-opacity="1" fill-rule="nonzero"/><path fill="#e0ac69" d="M 14.546875 10.554688 C 14.449219 10.554688 14.359375 10.507812 14.300781 10.425781 L 7.511719 0.523438 C 7.417969 0.390625 7.453125 0.203125 7.589844 0.113281 C 7.722656 0.0195312 7.910156 0.0546875 8 0.1875 L 14.789062 10.089844 C 14.882812 10.222656 14.847656 10.410156 14.714844 10.5 C 14.660156 10.535156 14.601562 10.554688 14.546875 10.554688 Z M 14.546875 10.554688 " fill-opacity="1" fill-rule="nonzero"/><g clip-path="url(#70b24a23a8)"><path fill="#e0ac69" d="M 30.929688 37.476562 C 30.828125 37.476562 30.730469 37.425781 30.675781 37.332031 L 28.152344 33.082031 C 28.066406 32.941406 28.113281 32.757812 28.253906 32.675781 C 28.394531 32.59375 28.578125 32.636719 28.660156 32.78125 L 31.183594 37.027344 C 31.269531 37.167969 31.222656 37.351562 31.082031 37.433594 C 31.035156 37.464844 30.980469 37.476562 30.929688 37.476562 Z M 30.929688 37.476562 " fill-opacity="1" fill-rule="nonzero"/></g><g clip-path="url(#e2a9efc39d)"><path fill="#f69552" d="M 37.164062 29.457031 C 37.117188 29.457031 37.066406 29.445312 37.019531 29.421875 L 29.003906 24.949219 C 28.859375 24.867188 28.808594 24.6875 28.886719 24.542969 C 28.96875 24.398438 29.148438 24.347656 29.292969 24.429688 L 37.3125 28.902344 C 37.453125 28.984375 37.503906 29.164062 37.425781 29.304688 C 37.371094 29.402344 37.269531 29.457031 37.164062 29.457031 Z M 37.164062 29.457031 " fill-opacity="1" fill-rule="nonzero"/></g><g clip-path="url(#a130c3d6cd)"><path fill="#e15c63" d="M 37.070312 17 L 34.09375 17 C 33.929688 17 33.796875 16.867188 33.796875 16.703125 C 33.796875 16.539062 33.929688 16.40625 34.09375 16.40625 L 37.070312 16.40625 C 37.234375 16.40625 37.367188 16.539062 37.367188 16.703125 C 37.367188 16.867188 37.234375 17 37.070312 17 Z M 37.070312 17 " fill-opacity="1" fill-rule="nonzero"/></g><g clip-path="url(#aa207bd66f)"><path fill="#f69552" d="M 27.566406 11.945312 C 27.46875 11.945312 27.371094 11.898438 27.316406 11.808594 C 27.226562 11.671875 27.265625 11.488281 27.40625 11.398438 L 37.003906 5.207031 C 37.144531 5.121094 37.328125 5.160156 37.414062 5.296875 C 37.503906 5.433594 37.464844 5.617188 37.328125 5.707031 L 27.726562 11.898438 C 27.675781 11.929688 27.621094 11.945312 27.566406 11.945312 Z M 27.566406 11.945312 " fill-opacity="1" fill-rule="nonzero"/></g><path fill="#e15c63" d="M 22.960938 10.554688 C 22.90625 10.554688 22.847656 10.535156 22.792969 10.5 C 22.660156 10.410156 22.625 10.222656 22.71875 10.089844 L 29.503906 0.1875 C 29.597656 0.0546875 29.785156 0.0195312 29.917969 0.113281 C 30.054688 0.203125 30.089844 0.390625 29.996094 0.523438 L 23.207031 10.425781 C 23.148438 10.507812 23.058594 10.554688 22.960938 10.554688 Z M 22.960938 10.554688 " fill-opacity="1" fill-rule="nonzero"/></svg>