<svg xmlns="http://www.w3.org/2000/svg" xmlns:xlink="http://www.w3.org/1999/xlink" width="90" zoomAndPan="magnify" viewBox="0 0 67.5 67.499996" height="90" preserveAspectRatio="xMidYMid meet" version="1.0"><defs><clipPath id="fdccb62ce1"><path d="M 0.640625 0.640625 L 53 0.640625 L 53 66.640625 L 0.640625 66.640625 Z M 0.640625 0.640625 " clip-rule="nonzero"/></clipPath><clipPath id="2fcaf7c782"><path d="M 38 0.640625 L 53 0.640625 L 53 19 L 38 19 Z M 38 0.640625 " clip-rule="nonzero"/></clipPath><clipPath id="79a9e9b59c"><path d="M 43 13 L 66.640625 13 L 66.640625 51 L 43 51 Z M 43 13 " clip-rule="nonzero"/></clipPath><clipPath id="3c5182dc40"><path d="M 56 13 L 66.640625 13 L 66.640625 25 L 56 25 Z M 56 13 " clip-rule="nonzero"/></clipPath></defs><path fill="#dddddd" d="M 48.886719 49.902344 L 44.035156 47.332031 L 51.53125 33.1875 L 51.53125 17.6875 L 38.9375 17.6875 L 38.9375 1.511719 L 1.441406 1.511719 L 1.441406 65.839844 L 51.53125 65.839844 L 51.53125 44.914062 L 48.886719 49.902344 " fill-opacity="1" fill-rule="nonzero"/><g clip-path="url(#fdccb62ce1)"><path fill="#dddddd" d="M 2.246094 65.039062 L 50.726562 65.039062 L 50.726562 48.140625 L 49.597656 50.277344 C 49.386719 50.667969 48.902344 50.820312 48.511719 50.613281 L 43.660156 48.042969 C 43.472656 47.941406 43.332031 47.773438 43.269531 47.566406 C 43.207031 47.363281 43.226562 47.144531 43.328125 46.957031 L 50.726562 32.988281 L 50.726562 18.488281 L 38.9375 18.488281 C 38.492188 18.488281 38.132812 18.128906 38.132812 17.6875 L 38.132812 2.316406 L 2.246094 2.316406 Z M 51.53125 66.640625 L 1.441406 66.640625 C 1 66.640625 0.640625 66.28125 0.640625 65.839844 L 0.640625 1.511719 C 0.640625 1.070312 1 0.710938 1.441406 0.710938 L 38.9375 0.710938 C 39.378906 0.710938 39.738281 1.070312 39.738281 1.511719 L 39.738281 16.886719 L 51.53125 16.886719 C 51.972656 16.886719 52.332031 17.242188 52.332031 17.6875 L 52.332031 33.1875 C 52.332031 33.320312 52.300781 33.449219 52.238281 33.5625 L 45.121094 47 L 48.554688 48.816406 L 50.820312 44.539062 C 50.992188 44.214844 51.367188 44.046875 51.722656 44.136719 C 52.078125 44.226562 52.332031 44.546875 52.332031 44.914062 L 52.332031 65.839844 C 52.332031 66.28125 51.972656 66.640625 51.53125 66.640625 " fill-opacity="1" fill-rule="nonzero"/></g><path fill="#fb9e50" d="M 30.914062 25.910156 L 22.058594 25.910156 C 20.589844 25.910156 19.402344 24.71875 19.402344 23.253906 L 19.402344 15.074219 C 19.402344 13.605469 20.589844 12.417969 22.058594 12.417969 L 30.914062 12.417969 C 32.382812 12.417969 33.570312 13.605469 33.570312 15.074219 L 33.570312 23.253906 C 33.570312 24.71875 32.382812 25.910156 30.914062 25.910156 " fill-opacity="1" fill-rule="nonzero"/><path fill="#fb9e50" d="M 22.058594 13.21875 C 21.035156 13.21875 20.203125 14.050781 20.203125 15.074219 L 20.203125 23.253906 C 20.203125 24.273438 21.035156 25.105469 22.058594 25.105469 L 30.914062 25.105469 C 31.9375 25.105469 32.769531 24.273438 32.769531 23.253906 L 32.769531 15.074219 C 32.769531 14.050781 31.9375 13.21875 30.914062 13.21875 Z M 30.914062 26.710938 L 22.058594 26.710938 C 20.148438 26.710938 18.597656 25.160156 18.597656 23.253906 L 18.597656 15.074219 C 18.597656 13.167969 20.148438 11.617188 22.058594 11.617188 L 30.914062 11.617188 C 32.820312 11.617188 34.371094 13.167969 34.371094 15.074219 L 34.371094 23.253906 C 34.371094 25.160156 32.820312 26.710938 30.914062 26.710938 " fill-opacity="1" fill-rule="nonzero"/><path fill="#f476a0" d="M 28.433594 17.011719 C 28.433594 18.089844 27.5625 18.960938 26.484375 18.960938 C 25.410156 18.960938 24.539062 18.089844 24.539062 17.011719 C 24.539062 15.9375 25.410156 15.066406 26.484375 15.066406 C 27.5625 15.066406 28.433594 15.9375 28.433594 17.011719 " fill-opacity="1" fill-rule="nonzero"/><path fill="#f476a0" d="M 26.484375 15.867188 C 25.855469 15.867188 25.339844 16.382812 25.339844 17.011719 C 25.339844 17.644531 25.855469 18.15625 26.484375 18.15625 C 27.117188 18.15625 27.628906 17.644531 27.628906 17.011719 C 27.628906 16.382812 27.117188 15.867188 26.484375 15.867188 Z M 26.484375 19.761719 C 24.96875 19.761719 23.738281 18.527344 23.738281 17.011719 C 23.738281 15.496094 24.96875 14.265625 26.484375 14.265625 C 28 14.265625 29.234375 15.496094 29.234375 17.011719 C 29.234375 18.527344 28 19.761719 26.484375 19.761719 " fill-opacity="1" fill-rule="nonzero"/><path fill="#46b79e" d="M 30.972656 25.910156 L 21.996094 25.910156 L 21.996094 25.808594 C 21.996094 23.332031 24.007812 21.320312 26.484375 21.320312 C 28.964844 21.320312 30.972656 23.332031 30.972656 25.808594 L 30.972656 25.910156 " fill-opacity="1" fill-rule="nonzero"/><path fill="#46b79e" d="M 22.867188 25.105469 L 30.105469 25.105469 C 29.777344 23.410156 28.277344 22.125 26.484375 22.125 C 24.695312 22.125 23.195312 23.410156 22.867188 25.105469 Z M 30.972656 26.710938 L 21.996094 26.710938 C 21.554688 26.710938 21.195312 26.351562 21.195312 25.910156 L 21.195312 25.808594 C 21.195312 22.894531 23.570312 20.519531 26.484375 20.519531 C 29.402344 20.519531 31.777344 22.894531 31.777344 25.808594 L 31.777344 25.910156 C 31.777344 26.351562 31.417969 26.710938 30.972656 26.710938 " fill-opacity="1" fill-rule="nonzero"/><path fill="#465189" d="M 51.53125 17.6875 L 38.9375 17.6875 L 38.9375 1.511719 Z M 51.53125 17.6875 " fill-opacity="1" fill-rule="nonzero"/><g clip-path="url(#2fcaf7c782)"><path fill="#465189" d="M 39.738281 16.886719 L 49.886719 16.886719 L 39.738281 3.847656 Z M 51.53125 18.488281 L 38.9375 18.488281 C 38.492188 18.488281 38.132812 18.128906 38.132812 17.6875 L 38.132812 1.511719 C 38.132812 1.171875 38.351562 0.867188 38.675781 0.753906 C 39 0.644531 39.359375 0.75 39.570312 1.019531 L 52.160156 17.195312 C 52.351562 17.4375 52.382812 17.765625 52.25 18.039062 C 52.113281 18.316406 51.835938 18.488281 51.53125 18.488281 " fill-opacity="1" fill-rule="nonzero"/></g><path fill="#fb9e50" d="M 52.90625 26.257812 C 52.78125 26.257812 52.652344 26.230469 52.535156 26.164062 C 52.140625 25.957031 51.992188 25.472656 52.199219 25.082031 L 57.613281 14.867188 C 57.820312 14.476562 58.304688 14.324219 58.695312 14.53125 L 60.816406 15.65625 C 61.207031 15.863281 61.355469 16.347656 61.148438 16.742188 C 60.941406 17.132812 60.457031 17.28125 60.066406 17.074219 L 58.652344 16.324219 L 53.617188 25.832031 C 53.472656 26.105469 53.195312 26.257812 52.90625 26.257812 " fill-opacity="1" fill-rule="nonzero"/><path fill="#d94663" d="M 44.035156 47.332031 L 48.886719 49.902344 L 65.453125 18.628906 C 66.070312 17.46875 65.625 16.03125 64.464844 15.414062 L 63.820312 15.070312 C 62.65625 14.457031 61.21875 14.898438 60.601562 16.058594 L 44.035156 47.332031 " fill-opacity="1" fill-rule="nonzero"/><g clip-path="url(#79a9e9b59c)"><path fill="#d94663" d="M 45.121094 47 L 48.554688 48.816406 L 64.746094 18.253906 C 65.152344 17.484375 64.859375 16.53125 64.089844 16.125 L 63.441406 15.78125 C 63.070312 15.582031 62.644531 15.542969 62.242188 15.667969 C 61.839844 15.789062 61.507812 16.0625 61.3125 16.433594 Z M 48.886719 50.703125 C 48.757812 50.703125 48.632812 50.675781 48.511719 50.613281 L 43.660156 48.042969 C 43.472656 47.941406 43.332031 47.773438 43.269531 47.566406 C 43.207031 47.363281 43.226562 47.144531 43.328125 46.957031 L 59.894531 15.683594 C 60.292969 14.933594 60.957031 14.382812 61.769531 14.132812 C 62.582031 13.882812 63.441406 13.964844 64.195312 14.363281 L 64.839844 14.707031 C 65.589844 15.105469 66.140625 15.769531 66.390625 16.582031 C 66.640625 17.394531 66.558594 18.253906 66.164062 19.003906 L 49.597656 50.277344 C 49.453125 50.550781 49.175781 50.703125 48.886719 50.703125 " fill-opacity="1" fill-rule="nonzero"/></g><path fill="#46b79e" d="M 44.035156 47.332031 L 48.886719 49.902344 L 42.652344 55.8125 Z M 44.035156 47.332031 " fill-opacity="1" fill-rule="nonzero"/><path fill="#46b79e" d="M 44.648438 48.5625 L 43.824219 53.59375 L 47.523438 50.089844 Z M 42.652344 56.613281 C 42.523438 56.613281 42.394531 56.582031 42.273438 56.519531 C 41.972656 56.359375 41.804688 56.023438 41.859375 55.683594 L 43.246094 47.203125 C 43.285156 46.949219 43.449219 46.730469 43.679688 46.613281 C 43.910156 46.5 44.183594 46.503906 44.410156 46.625 L 49.261719 49.195312 C 49.492188 49.316406 49.648438 49.539062 49.683594 49.792969 C 49.71875 50.050781 49.625 50.308594 49.4375 50.484375 L 43.203125 56.394531 C 43.050781 56.539062 42.851562 56.613281 42.652344 56.613281 " fill-opacity="1" fill-rule="nonzero"/><path fill="#46b79e" d="M 57.761719 21.425781 L 62.613281 23.996094 L 65.453125 18.628906 C 66.070312 17.46875 65.625 16.03125 64.464844 15.414062 L 63.820312 15.070312 C 62.65625 14.457031 61.21875 14.898438 60.601562 16.058594 L 57.761719 21.425781 " fill-opacity="1" fill-rule="nonzero"/><g clip-path="url(#3c5182dc40)"><path fill="#46b79e" d="M 58.84375 21.09375 L 62.277344 22.910156 L 64.746094 18.253906 C 64.941406 17.882812 64.984375 17.457031 64.859375 17.054688 C 64.734375 16.652344 64.460938 16.320312 64.089844 16.125 L 63.441406 15.78125 C 63.070312 15.582031 62.644531 15.542969 62.242188 15.667969 C 61.839844 15.789062 61.507812 16.0625 61.3125 16.433594 Z M 62.609375 24.796875 C 62.484375 24.796875 62.355469 24.765625 62.234375 24.703125 L 57.386719 22.132812 C 57.199219 22.035156 57.058594 21.863281 56.996094 21.660156 C 56.929688 21.457031 56.953125 21.238281 57.050781 21.050781 L 59.894531 15.683594 C 60.292969 14.933594 60.957031 14.382812 61.769531 14.132812 C 62.582031 13.882812 63.441406 13.964844 64.195312 14.363281 L 64.839844 14.707031 C 65.589844 15.105469 66.140625 15.769531 66.390625 16.582031 C 66.640625 17.394531 66.558594 18.253906 66.164062 19.003906 L 63.320312 24.371094 C 63.175781 24.640625 62.898438 24.796875 62.609375 24.796875 " fill-opacity="1" fill-rule="nonzero"/></g><path fill="#ffffff" d="M 48.519531 45.53125 C 48.394531 45.53125 48.265625 45.5 48.144531 45.4375 C 47.753906 45.230469 47.605469 44.746094 47.8125 44.355469 L 53.417969 33.773438 C 53.625 33.382812 54.109375 33.230469 54.503906 33.4375 C 54.894531 33.648438 55.042969 34.132812 54.835938 34.523438 L 49.230469 45.105469 C 49.085938 45.375 48.808594 45.53125 48.519531 45.53125 " fill-opacity="1" fill-rule="nonzero"/><path fill="#465189" d="M 39.121094 57.234375 L 37.121094 57.234375 C 35.941406 57.234375 34.933594 56.390625 34.730469 55.230469 L 34.5625 54.269531 C 34.519531 54.027344 34.328125 53.953125 34.25 53.929688 C 34.183594 53.910156 34.023438 53.886719 33.878906 53.996094 L 33.046875 55.957031 C 32.707031 56.761719 31.898438 57.21875 31.035156 57.097656 C 30.171875 56.976562 29.519531 56.316406 29.410156 55.449219 L 28.800781 50.53125 C 28.75 50.285156 28.550781 50.222656 28.464844 50.203125 C 28.382812 50.1875 28.1875 50.175781 28.046875 50.355469 L 27.375 51.894531 C 27.195312 52.300781 26.722656 52.484375 26.316406 52.308594 C 25.910156 52.128906 25.726562 51.65625 25.902344 51.25 L 26.609375 49.640625 C 26.625 49.601562 26.644531 49.566406 26.667969 49.53125 C 27.121094 48.820312 27.949219 48.46875 28.773438 48.628906 C 29.597656 48.792969 30.230469 49.429688 30.382812 50.257812 C 30.386719 50.273438 30.390625 50.289062 30.390625 50.304688 L 31.003906 55.253906 C 31.027344 55.4375 31.152344 55.496094 31.257812 55.511719 C 31.359375 55.523438 31.496094 55.503906 31.570312 55.332031 L 32.464844 53.226562 C 32.496094 53.152344 32.539062 53.078125 32.59375 53.015625 C 33.113281 52.414062 33.910156 52.171875 34.675781 52.382812 C 35.441406 52.59375 36.003906 53.210938 36.140625 53.992188 L 36.308594 54.949219 C 36.378906 55.34375 36.71875 55.628906 37.121094 55.628906 L 39.121094 55.628906 C 39.566406 55.628906 39.925781 55.988281 39.925781 56.429688 C 39.925781 56.875 39.566406 57.234375 39.121094 57.234375 " fill-opacity="1" fill-rule="nonzero"/><path fill="#465189" d="M 34.65625 34.070312 L 18.3125 34.070312 C 17.871094 34.070312 17.511719 33.710938 17.511719 33.265625 C 17.511719 32.824219 17.871094 32.464844 18.3125 32.464844 L 34.65625 32.464844 C 35.101562 32.464844 35.460938 32.824219 35.460938 33.265625 C 35.460938 33.710938 35.101562 34.070312 34.65625 34.070312 " fill-opacity="1" fill-rule="nonzero"/><path fill="#465189" d="M 40.378906 38.753906 L 12.59375 38.753906 C 12.152344 38.753906 11.792969 38.394531 11.792969 37.953125 C 11.792969 37.507812 12.152344 37.148438 12.59375 37.148438 L 40.378906 37.148438 C 40.820312 37.148438 41.179688 37.507812 41.179688 37.953125 C 41.179688 38.394531 40.820312 38.753906 40.378906 38.753906 " fill-opacity="1" fill-rule="nonzero"/><path fill="#465189" d="M 40.378906 43.4375 L 12.59375 43.4375 C 12.152344 43.4375 11.792969 43.078125 11.792969 42.636719 C 11.792969 42.195312 12.152344 41.835938 12.59375 41.835938 L 40.378906 41.835938 C 40.820312 41.835938 41.179688 42.195312 41.179688 42.636719 C 41.179688 43.078125 40.820312 43.4375 40.378906 43.4375 " fill-opacity="1" fill-rule="nonzero"/></svg>